<?xml version="1.0" encoding="UTF-8" standalone="no"?><!DOCTYPE svg PUBLIC "-//W3C//DTD SVG 1.1//EN" "http://www.w3.org/Graphics/SVG/1.1/DTD/svg11.dtd"><svg width="100%" height="100%" viewBox="0 0 336 336" version="1.1" xmlns="http://www.w3.org/2000/svg" xmlns:xlink="http://www.w3.org/1999/xlink" xml:space="preserve" xmlns:serif="http://www.serif.com/" style="fill-rule:evenodd;clip-rule:evenodd;stroke-linejoin:round;stroke-miterlimit:1.41421;"><path d="M111,190.5l-30,0c-4.95,0 -9,-4.05 -9,-9l0,-30c0,-4.95 4.05,-9 9,-9l30,0c4.95,0 9,4.05 9,9l0,30c0,4.95 -4.05,9 -9,9Zm81,-9l0,-30c0,-4.95 -4.05,-9 -9,-9l-30,0c-4.95,0 -9,4.05 -9,9l0,30c0,4.95 4.05,9 9,9l30,0c4.95,0 9,-4.05 9,-9Zm72,0l0,-30c0,-4.95 -4.05,-9 -9,-9l-30,0c-4.95,0 -9,4.05 -9,9l0,30c0,4.95 4.05,9 9,9l30,0c4.95,0 9,-4.05 9,-9Zm-72,72l0,-30c0,-4.95 -4.05,-9 -9,-9l-30,0c-4.95,0 -9,4.05 -9,9l0,30c0,4.95 4.05,9 9,9l30,0c4.95,0 9,-4.05 9,-9Zm-72,0l0,-30c0,-4.95 -4.05,-9 -9,-9l-30,0c-4.95,0 -9,4.05 -9,9l0,30c0,4.95 4.05,9 9,9l30,0c4.95,0 9,-4.05 9,-9Zm144,0l0,-30c0,-4.95 -4.05,-9 -9,-9l-30,0c-4.95,0 -9,4.05 -9,9l0,30c0,4.95 4.05,9 9,9l30,0c4.95,0 9,-4.05 9,-9Zm72,-177l0,223.5c0,19.875 -16.125,36 -36,36l-264,0c-19.875,0 -36,-16.125 -36,-36l0,-223.5c0,-19.875 16.125,-36 36,-36l36,0l0,-31.5c0,-4.95 4.05,-9 9,-9l22.5,0c4.95,0 9,4.05 9,9l0,31.5l111,0l0,-31.5c0,-4.95 4.05,-9 9,-9l22.5,0c4.95,0 9,4.05 9,9l0,31.5l36,0c19.875,0 36,16.125 36,36Zm-28.5,226.5l0,-201l-279,0l0,201c0,2.475 2.025,4.5 4.5,4.5l270,0c2.475,0 4.5,-2.025 4.5,-4.5Z" style="fill:#a9a9a9;fill-rule:nonzero;"/></svg>