<?xml version="1.0" encoding="UTF-8" standalone="no"?><!DOCTYPE svg PUBLIC "-//W3C//DTD SVG 1.1//EN" "http://www.w3.org/Graphics/SVG/1.1/DTD/svg11.dtd"><svg width="100%" height="100%" viewBox="0 0 188 188" version="1.1" xmlns="http://www.w3.org/2000/svg" xmlns:xlink="http://www.w3.org/1999/xlink" xml:space="preserve" xmlns:serif="http://www.serif.com/" style="fill-rule:evenodd;clip-rule:evenodd;stroke-linejoin:round;stroke-miterlimit:1.41421;"><g id="Layer_x0020_1"><path d="M174.236,22.986c2.685,-2.685 2.685,-7.038 0,-9.722c-2.684,-2.685 -7.037,-2.685 -9.722,0l-151.251,151.25c-2.684,2.685 -2.684,7.038 0,9.722c2.685,2.685 7.038,2.685 9.722,0l151.251,-151.25Z" style="fill:#ff4500;fill-rule:nonzero;stroke:#ff4500;stroke-width:18px;"/><path d="M22.986,13.264c-2.685,-2.685 -7.038,-2.685 -9.722,0c-2.685,2.684 -2.685,7.037 0,9.722l151.251,151.25c2.684,2.685 7.037,2.685 9.722,0c2.684,-2.684 2.684,-7.037 0,-9.722l-151.251,-151.25Z" style="fill:#ff4500;fill-rule:nonzero;stroke:#ff4500;stroke-width:18px;"/></g></svg>