<?xml version="1.0" encoding="UTF-8" standalone="no"?><!DOCTYPE svg PUBLIC "-//W3C//DTD SVG 1.1//EN" "http://www.w3.org/Graphics/SVG/1.1/DTD/svg11.dtd"><svg width="100%" height="100%" viewBox="0 0 349 349" version="1.1" xmlns="http://www.w3.org/2000/svg" xmlns:xlink="http://www.w3.org/1999/xlink" xml:space="preserve" xmlns:serif="http://www.serif.com/" style="fill-rule:evenodd;clip-rule:evenodd;stroke-linejoin:round;stroke-miterlimit:1.41421;"><path d="M336.559,68.611l-105.543,105.554l105.543,105.549c15.699,15.705 15.699,41.145 0,56.85c-7.844,7.844 -18.128,11.769 -28.407,11.769c-10.296,0 -20.581,-3.919 -28.419,-11.769l-105.566,-105.561l-105.558,105.56c-7.843,7.844 -18.128,11.769 -28.416,11.769c-10.285,0 -20.563,-3.919 -28.413,-11.769c-15.699,-15.698 -15.699,-41.139 0,-56.85l105.54,-105.549l-105.546,-105.553c-15.699,-15.699 -15.699,-41.145 0,-56.844c15.696,-15.687 41.127,-15.687 56.829,0l105.563,105.554l105.555,-105.554c15.705,-15.687 41.139,-15.687 56.832,0c15.705,15.699 15.705,41.145 0.006,56.844Z" style="fill:#ff4500;fill-rule:nonzero;"/></svg>