<?xml version="1.0" encoding="UTF-8" standalone="no"?><!DOCTYPE svg PUBLIC "-//W3C//DTD SVG 1.1//EN" "http://www.w3.org/Graphics/SVG/1.1/DTD/svg11.dtd"><svg width="100%" height="100%" viewBox="0 0 576 512" version="1.1" xmlns="http://www.w3.org/2000/svg" xmlns:xlink="http://www.w3.org/1999/xlink" xml:space="preserve" xmlns:serif="http://www.serif.com/" style="fill-rule:evenodd;clip-rule:evenodd;stroke-linejoin:round;stroke-miterlimit:1.41421;"><path d="M272.702,359.139c-80.483,-9.011 -136.212,-86.886 -116.93,-167.042l116.93,167.042Zm15.298,32.861c-102.556,0 -192.092,-54.701 -240,-136c21.755,-36.917 52.1,-68.342 88.344,-91.658l-27.541,-39.343c-41.802,27.235 -76.882,63.742 -102.157,106.632c-8.85,15.018 -8.85,33.721 0,48.739c56.358,95.636 161.494,159.63 281.354,159.63c13.251,0.001 26.491,-0.79 39.648,-2.367l-32.021,-45.744c-2.542,0.071 -5.084,0.108 -7.627,0.111Zm281.354,-111.631c-33.232,56.394 -83.421,101.742 -143.554,129.492l48.116,68.74c3.801,5.429 2.48,12.912 -2.949,16.712l-20.737,14.517c-5.429,3.801 -12.912,2.48 -16.712,-2.949l-331.434,-473.482c-3.801,-5.429 -2.48,-12.912 2.949,-16.712l20.737,-14.517c5.429,-3.801 12.912,-2.48 16.712,2.949l55.526,79.325c28.604,-8.101 58.8,-12.444 89.992,-12.444c119.86,0 224.996,63.994 281.354,159.631c8.849,15.018 8.849,33.72 0,48.738Zm-41.354,-24.369c-44.157,-74.933 -123.677,-127.27 -216.162,-135.007c-9.796,10.085 -15.838,23.837 -15.838,39.007c0,30.928 25.072,56 56,56c30.928,0 56,-25.072 56,-56l-0.001,-0.042c30.632,57.277 16.739,130.26 -36.928,171.719l26.695,38.135c54.86,-23.261 100.542,-63.426 130.234,-113.812Z" style="fill:#ff4500;fill-rule:nonzero;"/></svg>