<?xml version="1.0" encoding="UTF-8" standalone="no"?><!DOCTYPE svg PUBLIC "-//W3C//DTD SVG 1.1//EN" "http://www.w3.org/Graphics/SVG/1.1/DTD/svg11.dtd"><svg width="100%" height="100%" viewBox="0 0 576 512" version="1.1" xmlns="http://www.w3.org/2000/svg" xmlns:xlink="http://www.w3.org/1999/xlink" xml:space="preserve" xmlns:serif="http://www.serif.com/" style="fill-rule:evenodd;clip-rule:evenodd;stroke-linejoin:round;stroke-miterlimit:1.41421;"><path d="M569.354,231.631c-56.384,-95.682 -161.544,-159.631 -281.354,-159.631c-119.86,0 -224.996,63.994 -281.354,159.631c-8.85,15.018 -8.85,33.721 0,48.739c56.385,95.681 161.544,159.63 281.354,159.63c119.86,0 224.996,-63.994 281.354,-159.631c8.85,-15.017 8.85,-33.721 0,-48.738Zm-281.354,160.369c-102.556,0 -192.091,-54.701 -240,-136c44.157,-74.933 123.677,-127.27 216.162,-135.007c9.796,10.085 15.838,23.837 15.838,39.007c0,30.928 -25.072,56 -56,56c-30.928,0 -56,-25.072 -56,-56l0.001,-0.042c-10.207,19.085 -16.001,40.886 -16.001,64.042c0,75.111 60.889,136 136,136c75.111,0 136,-60.889 136,-136c0,-31.031 -10.4,-59.629 -27.895,-82.515c55.599,23.153 101.904,63.621 131.895,114.515c-47.908,81.299 -137.444,136 -240,136Z" style="fill:#ff4500;fill-rule:nonzero;"/></svg>