<?xml version="1.0" encoding="UTF-8" standalone="no"?><!DOCTYPE svg PUBLIC "-//W3C//DTD SVG 1.1//EN" "http://www.w3.org/Graphics/SVG/1.1/DTD/svg11.dtd"><svg width="100%" height="100%" viewBox="0 0 448 512" version="1.1" xmlns="http://www.w3.org/2000/svg" xmlns:xlink="http://www.w3.org/1999/xlink" xml:space="preserve" xmlns:serif="http://www.serif.com/" style="fill-rule:evenodd;clip-rule:evenodd;stroke-linejoin:round;stroke-miterlimit:1.41421;"><path d="M448,80l0,352c0,26.5 -21.5,48 -48,48l-85.3,0l0,-177.2l60.6,0l8.7,-67.6l-69.3,0l0,-43.2c0,-19.6 5.4,-32.9 33.5,-32.9l35.8,0l0,-60.4c-6.2,-0.8 -27.4,-2.7 -52.2,-2.7c-51.6,0 -87,31.5 -87,89.4l0,49.9l-60.8,0l0,67.6l60.9,0l0,177.1l-196.9,0c-26.5,0 -48,-21.5 -48,-48l0,-352c0,-26.5 21.5,-48 48,-48l352,0c26.5,0 48,21.5 48,48Z" style="fill:#fff;fill-rule:nonzero;"/></svg>