<?xml version="1.0" encoding="UTF-8" standalone="no"?><!DOCTYPE svg PUBLIC "-//W3C//DTD SVG 1.1//EN" "http://www.w3.org/Graphics/SVG/1.1/DTD/svg11.dtd"><svg width="100%" height="100%" viewBox="0 0 448 512" version="1.1" xmlns="http://www.w3.org/2000/svg" xmlns:xlink="http://www.w3.org/1999/xlink" xml:space="preserve" xmlns:serif="http://www.serif.com/" style="fill-rule:evenodd;clip-rule:evenodd;stroke-linejoin:round;stroke-miterlimit:1.41421;"><path d="M400,32l-352,0c-26.5,0 -48,21.5 -48,48l0,352c0,26.5 21.5,48 48,48l352,0c26.5,0 48,-21.5 48,-48l0,-352c0,-26.5 -21.5,-48 -48,-48Zm-122.7,383.7c-8.4,1.5 -11.5,-3.7 -11.5,-8c0,-5.4 0.2,-33 0.2,-55.3c0,-15.6 -5.2,-25.5 -11.3,-30.7c37,-4.1 76,-9.2 76,-73.1c0,-18.2 -6.5,-27.3 -17.1,-39c1.7,-4.3 7.4,-22 -1.7,-45c-13.9,-4.3 -45.7,17.9 -45.7,17.9c-13.2,-3.7 -27.5,-5.6 -41.6,-5.6c-14.1,0 -28.4,1.9 -41.6,5.6c0,0 -31.8,-22.2 -45.7,-17.9c-9.1,22.9 -3.5,40.6 -1.7,45c-10.6,11.7 -15.6,20.8 -15.6,39c0,63.6 37.3,69 74.3,73.1c-4.8,4.3 -9.1,11.7 -10.6,22.3c-9.5,4.3 -33.8,11.7 -48.3,-13.9c-9.1,-15.8 -25.5,-17.1 -25.5,-17.1c-16.2,-0.2 -1.1,10.2 -1.1,10.2c10.8,5 18.4,24.2 18.4,24.2c9.7,29.7 56.1,19.7 56.1,19.7c0,13.9 0.2,36.5 0.2,40.6c0,4.3 -3,9.5 -11.5,8c-66,-22.1 -112.2,-84.9 -112.2,-158.3c0,-91.8 70.2,-161.5 162,-161.5c91.8,0 166.2,69.7 166.2,161.5c0.1,73.4 -44.7,136.3 -110.7,158.3Zm-98.1,-61.1c-1.9,0.4 -3.7,-0.4 -3.9,-1.7c-0.2,-1.5 1.1,-2.8 3,-3.2c1.9,-0.2 3.7,0.6 3.9,1.9c0.3,1.3 -1,2.6 -3,3Zm-9.5,-0.9c0,1.3 -1.5,2.4 -3.5,2.4c-2.2,0.2 -3.7,-0.9 -3.7,-2.4c0,-1.3 1.5,-2.4 3.5,-2.4c1.9,-0.2 3.7,0.9 3.7,2.4Zm-13.7,-1.1c-0.4,1.3 -2.4,1.9 -4.1,1.3c-1.9,-0.4 -3.2,-1.9 -2.8,-3.2c0.4,-1.3 2.4,-1.9 4.1,-1.5c2,0.6 3.3,2.1 2.8,3.4Zm-12.3,-5.4c-0.9,1.1 -2.8,0.9 -4.3,-0.6c-1.5,-1.3 -1.9,-3.2 -0.9,-4.1c0.9,-1.1 2.8,-0.9 4.3,0.6c1.3,1.3 1.8,3.3 0.9,4.1Zm-9.1,-9.1c-0.9,0.6 -2.6,0 -3.7,-1.5c-1.1,-1.5 -1.1,-3.2 0,-3.9c1.1,-0.9 2.8,-0.2 3.7,1.3c1.1,1.5 1.1,3.3 0,4.1Zm-6.5,-9.7c-0.9,0.9 -2.4,0.4 -3.5,-0.6c-1.1,-1.3 -1.3,-2.8 -0.4,-3.5c0.9,-0.9 2.4,-0.4 3.5,0.6c1.1,1.3 1.3,2.8 0.4,3.5Zm-6.7,-7.4c-0.4,0.9 -1.7,1.1 -2.8,0.4c-1.3,-0.6 -1.9,-1.7 -1.5,-2.6c0.4,-0.6 1.5,-0.9 2.8,-0.4c1.3,0.7 1.9,1.8 1.5,2.6Z" style="fill:#fff;fill-rule:nonzero;"/></svg>