<?xml version="1.0" encoding="UTF-8" standalone="no"?><!DOCTYPE svg PUBLIC "-//W3C//DTD SVG 1.1//EN" "http://www.w3.org/Graphics/SVG/1.1/DTD/svg11.dtd"><svg width="100%" height="100%" viewBox="0 0 448 512" version="1.1" xmlns="http://www.w3.org/2000/svg" xmlns:xlink="http://www.w3.org/1999/xlink" xml:space="preserve" xmlns:serif="http://www.serif.com/" style="fill-rule:evenodd;clip-rule:evenodd;stroke-linejoin:round;stroke-miterlimit:1.41421;"><path d="M416,32l-384.1,0c-17.6,0 -31.9,14.5 -31.9,32.3l0,383.4c0,17.8 14.3,32.3 31.9,32.3l384.1,0c17.6,0 32,-14.5 32,-32.3l0,-383.4c0,-17.8 -14.4,-32.3 -32,-32.3Zm-280.6,384l-66.4,0l0,-213.8l66.5,0l0,213.8l-0.1,0Zm-33.2,-243c-21.3,0 -38.5,-17.3 -38.5,-38.5c0,-21.2 17.2,-38.5 38.5,-38.5c21.2,0 38.5,17.3 38.5,38.5c0,21.3 -17.2,38.5 -38.5,38.5Zm282.1,243l-66.4,0l0,-104c0,-24.8 -0.5,-56.7 -34.5,-56.7c-34.6,0 -39.9,27 -39.9,54.9l0,105.8l-66.4,0l0,-213.8l63.7,0l0,29.2l0.9,0c8.9,-16.8 30.6,-34.5 62.9,-34.5c67.2,0 79.7,44.3 79.7,101.9l0,117.2Z" style="fill:#fff;fill-rule:nonzero;"/></svg>