<?xml version="1.0" encoding="UTF-8" standalone="no"?><!DOCTYPE svg PUBLIC "-//W3C//DTD SVG 1.1//EN" "http://www.w3.org/Graphics/SVG/1.1/DTD/svg11.dtd"><svg width="100%" height="100%" viewBox="0 0 300 44" version="1.1" xmlns="http://www.w3.org/2000/svg" xmlns:xlink="http://www.w3.org/1999/xlink" xml:space="preserve" xmlns:serif="http://www.serif.com/" style="fill-rule:evenodd;clip-rule:evenodd;stroke-linejoin:round;stroke-miterlimit:1.41421;"><path d="M0,30.703l0,-17.394l2.279,0l0,15.342l8.479,0l0,2.052l-10.758,0Z" style="fill:#b1c5dd;fill-rule:nonzero;"/><path d="M12.779,22.231c0,-2.887 0.767,-5.147 2.302,-6.781c1.534,-1.633 3.515,-2.45 5.942,-2.45c1.59,0 3.023,0.384 4.299,1.151c1.276,0.767 2.249,1.837 2.919,3.21c0.669,1.372 1.004,2.928 1.004,4.669c0,1.764 -0.352,3.342 -1.057,4.734c-0.705,1.392 -1.703,2.446 -2.995,3.162c-1.292,0.716 -2.686,1.074 -4.181,1.074c-1.621,0 -3.07,-0.396 -4.346,-1.187c-1.276,-0.791 -2.243,-1.87 -2.901,-3.239c-0.658,-1.368 -0.986,-2.816 -0.986,-4.343Zm2.349,0.036c0,2.096 0.557,3.748 1.673,4.954c1.116,1.206 2.516,1.809 4.199,1.809c1.715,0 3.126,-0.609 4.234,-1.827c1.108,-1.218 1.662,-2.947 1.662,-5.185c0,-1.416 -0.237,-2.652 -0.711,-3.708c-0.473,-1.056 -1.166,-1.875 -2.078,-2.456c-0.913,-0.582 -1.936,-0.872 -3.072,-0.872c-1.613,0 -3.001,0.559 -4.163,1.679c-1.163,1.119 -1.744,2.988 -1.744,5.606Z" style="fill:#b1c5dd;fill-rule:nonzero;"/><path d="M30.29,30.703l6.613,-17.394l2.454,0l7.047,17.394l-2.595,0l-2.009,-5.268l-7.199,0l-1.891,5.268l-2.42,0Zm4.968,-7.143l5.838,0l-1.797,-4.817c-0.548,-1.464 -0.956,-2.666 -1.222,-3.607c-0.219,1.115 -0.528,2.223 -0.928,3.322l-1.891,5.102Z" style="fill:#b1c5dd;fill-rule:nonzero;"/><path d="M48.225,30.703l0,-17.394l5.931,0c1.339,0 2.361,0.083 3.065,0.249c0.987,0.229 1.829,0.644 2.526,1.246c0.908,0.775 1.587,1.766 2.037,2.972c0.451,1.206 0.676,2.585 0.676,4.135c0,1.321 -0.153,2.492 -0.458,3.512c-0.306,1.021 -0.697,1.865 -1.175,2.533c-0.477,0.669 -1,1.195 -1.568,1.579c-0.567,0.383 -1.253,0.674 -2.055,0.872c-0.803,0.197 -1.725,0.296 -2.766,0.296l-6.213,0Zm2.278,-2.052l3.677,0c1.135,0 2.026,-0.107 2.672,-0.321c0.645,-0.213 1.16,-0.514 1.544,-0.902c0.54,-0.545 0.961,-1.279 1.263,-2.201c0.301,-0.921 0.452,-2.038 0.452,-3.352c0,-1.819 -0.296,-3.217 -0.887,-4.194c-0.591,-0.977 -1.31,-1.632 -2.155,-1.964c-0.611,-0.237 -1.594,-0.356 -2.948,-0.356l-3.618,0l0,13.29Z" style="fill:#b1c5dd;fill-rule:nonzero;"/><rect x="65.983" y="13.309" width="2.279" height="17.395" style="fill:#b1c5dd;fill-rule:nonzero;"/><path d="M72.255,30.703l0,-17.394l2.337,0l9.044,13.657l0,-13.657l2.184,0l0,17.394l-2.337,0l-9.043,-13.669l0,13.669l-2.185,0Z" style="fill:#b1c5dd;fill-rule:nonzero;"/><path d="M97.706,23.881l0,-2.041l7.294,-0.012l0,6.455c-1.12,0.902 -2.275,1.58 -3.465,2.035c-1.19,0.455 -2.411,0.682 -3.664,0.682c-1.691,0 -3.228,-0.366 -4.61,-1.098c-1.382,-0.731 -2.425,-1.789 -3.13,-3.174c-0.705,-1.384 -1.057,-2.93 -1.057,-4.639c0,-1.693 0.35,-3.273 1.051,-4.74c0.701,-1.468 1.709,-2.557 3.024,-3.269c1.316,-0.712 2.831,-1.068 4.546,-1.068c1.245,0 2.37,0.204 3.376,0.611c1.006,0.407 1.795,0.975 2.367,1.703c0.572,0.727 1.006,1.677 1.304,2.847l-2.056,0.57c-0.258,-0.886 -0.579,-1.582 -0.963,-2.088c-0.384,-0.507 -0.932,-0.912 -1.644,-1.217c-0.713,-0.304 -1.503,-0.456 -2.373,-0.456c-1.041,0 -1.941,0.16 -2.701,0.48c-0.759,0.32 -1.372,0.742 -1.838,1.264c-0.466,0.522 -0.828,1.095 -1.086,1.72c-0.439,1.076 -0.658,2.243 -0.658,3.501c0,1.55 0.264,2.847 0.793,3.891c0.528,1.045 1.297,1.82 2.307,2.326c1.011,0.506 2.083,0.76 3.219,0.76c0.986,0 1.949,-0.192 2.889,-0.576c0.939,-0.384 1.652,-0.793 2.137,-1.228l0,-3.239l-5.062,0Z" style="fill:#b1c5dd;fill-rule:nonzero;"/><path d="M182.206,24.604l2.149,0.582c-0.451,1.89 -1.261,3.332 -2.432,4.325c-1.17,0.993 -2.601,1.489 -4.292,1.489c-1.75,0 -3.173,-0.382 -4.269,-1.145c-1.097,-0.763 -1.931,-1.869 -2.504,-3.316c-0.572,-1.448 -0.858,-3.002 -0.858,-4.664c0,-1.811 0.323,-3.391 0.969,-4.74c0.646,-1.349 1.566,-2.373 2.758,-3.073c1.193,-0.7 2.505,-1.05 3.938,-1.05c1.624,0 2.99,0.443 4.098,1.329c1.107,0.886 1.879,2.132 2.315,3.737l-2.116,0.534c-0.376,-1.265 -0.923,-2.187 -1.639,-2.764c-0.716,-0.578 -1.617,-0.866 -2.703,-0.866c-1.248,0 -2.291,0.32 -3.129,0.961c-0.838,0.64 -1.427,1.501 -1.766,2.58c-0.34,1.08 -0.51,2.194 -0.51,3.341c0,1.479 0.201,2.77 0.604,3.874c0.402,1.103 1.028,1.928 1.877,2.474c0.849,0.545 1.769,0.818 2.758,0.818c1.204,0 2.223,-0.371 3.057,-1.115c0.835,-0.744 1.399,-1.847 1.695,-3.311Z" style="fill:#b1c5dd;fill-rule:nonzero;"/><path d="M186.348,22.231c0,-2.887 0.724,-5.147 2.171,-6.781c1.447,-1.633 3.316,-2.45 5.605,-2.45c1.499,0 2.85,0.384 4.054,1.151c1.203,0.767 2.121,1.837 2.752,3.21c0.631,1.372 0.947,2.928 0.947,4.669c0,1.764 -0.332,3.342 -0.997,4.734c-0.664,1.392 -1.606,2.446 -2.824,3.162c-1.219,0.716 -2.533,1.074 -3.943,1.074c-1.529,0 -2.895,-0.396 -4.099,-1.187c-1.203,-0.791 -2.115,-1.87 -2.735,-3.239c-0.621,-1.368 -0.931,-2.816 -0.931,-4.343Zm2.216,0.036c0,2.096 0.526,3.748 1.578,4.954c1.052,1.206 2.372,1.809 3.96,1.809c1.617,0 2.948,-0.609 3.992,-1.827c1.045,-1.218 1.568,-2.947 1.568,-5.185c0,-1.416 -0.224,-2.652 -0.67,-3.708c-0.447,-1.056 -1.101,-1.875 -1.961,-2.456c-0.86,-0.582 -1.826,-0.872 -2.896,-0.872c-1.521,0 -2.83,0.559 -3.927,1.679c-1.096,1.119 -1.644,2.988 -1.644,5.606Z" style="fill:#b1c5dd;fill-rule:nonzero;"/><path d="M204.58,30.703l0,-17.394l3.234,0l3.843,12.316c0.355,1.147 0.613,2.005 0.775,2.575c0.185,-0.633 0.473,-1.563 0.864,-2.789l3.888,-12.102l2.891,0l0,17.394l-2.071,0l0,-14.559l-4.719,14.559l-1.938,0l-4.696,-14.808l0,14.808l-2.071,0Z" style="fill:#b1c5dd;fill-rule:nonzero;"/><path d="M223.475,30.703l0,-17.394l3.235,0l3.843,12.316c0.354,1.147 0.613,2.005 0.775,2.575c0.185,-0.633 0.473,-1.563 0.864,-2.789l3.888,-12.102l2.891,0l0,17.394l-2.071,0l0,-14.559l-4.719,14.559l-1.938,0l-4.696,-14.808l0,14.808l-2.072,0Z" style="fill:#b1c5dd;fill-rule:nonzero;"/><path d="M242.482,30.703l0,-17.394l11.741,0l0,2.052l-9.592,0l0,5.328l8.982,0l0,2.041l-8.982,0l0,5.921l9.968,0l0,2.052l-12.117,0Z" style="fill:#b1c5dd;fill-rule:nonzero;"/><path d="M257.545,30.703l0,-17.394l2.205,0l8.528,13.657l0,-13.657l2.06,0l0,17.394l-2.204,0l-8.528,-13.669l0,13.669l-2.061,0Z" style="fill:#b1c5dd;fill-rule:nonzero;"/><path d="M278.08,30.703l0,-15.342l-5.349,0l0,-2.052l12.87,0l0,2.052l-5.372,0l0,15.342l-2.149,0Z" style="fill:#b1c5dd;fill-rule:nonzero;"/><path d="M287.074,25.115l2.027,-0.19c0.096,0.87 0.319,1.584 0.67,2.142c0.351,0.557 0.896,1.008 1.634,1.352c0.738,0.344 1.569,0.516 2.492,0.516c0.82,0 1.543,-0.13 2.171,-0.391c0.628,-0.261 1.095,-0.619 1.401,-1.074c0.307,-0.455 0.46,-0.951 0.46,-1.489c0,-0.546 -0.148,-1.023 -0.443,-1.43c-0.296,-0.407 -0.783,-0.749 -1.462,-1.026c-0.436,-0.182 -1.4,-0.465 -2.891,-0.849c-1.492,-0.383 -2.537,-0.745 -3.135,-1.085c-0.775,-0.435 -1.353,-0.975 -1.733,-1.62c-0.38,-0.645 -0.571,-1.367 -0.571,-2.165c0,-0.879 0.233,-1.699 0.698,-2.463c0.465,-0.763 1.145,-1.342 2.038,-1.738c0.894,-0.395 1.887,-0.593 2.98,-0.593c1.203,0 2.265,0.208 3.184,0.623c0.919,0.415 1.626,1.026 2.121,1.833c0.495,0.807 0.761,1.721 0.798,2.741l-2.06,0.166c-0.111,-1.099 -0.486,-1.93 -1.125,-2.492c-0.638,-0.561 -1.582,-0.842 -2.83,-0.842c-1.299,0 -2.246,0.255 -2.841,0.765c-0.594,0.51 -0.891,1.125 -0.891,1.845c0,0.625 0.21,1.139 0.631,1.543c0.414,0.403 1.493,0.817 3.24,1.24c1.746,0.423 2.944,0.793 3.594,1.109c0.945,0.467 1.643,1.058 2.093,1.774c0.451,0.716 0.676,1.541 0.676,2.474c0,0.926 -0.247,1.798 -0.742,2.616c-0.495,0.819 -1.206,1.456 -2.132,1.911c-0.927,0.455 -1.97,0.682 -3.129,0.682c-1.47,0 -2.701,-0.229 -3.694,-0.688c-0.993,-0.459 -1.772,-1.149 -2.337,-2.071c-0.565,-0.921 -0.862,-1.963 -0.892,-3.126Z" style="fill:#b1c5dd;fill-rule:nonzero;"/><path d="M128.754,18.357c-1.383,0 -2.5,1.085 -2.5,2.429c0,1.343 1.117,2.428 2.5,2.428c1.382,0 2.499,-1.085 2.499,-2.428c0,-1.344 -1.117,-2.429 -2.499,-2.429Zm8.749,0c-1.383,0 -2.5,1.085 -2.5,2.429c0,1.343 1.117,2.428 2.5,2.428c1.382,0 2.499,-1.085 2.499,-2.428c0,-1.344 -1.117,-2.429 -2.499,-2.429Zm8.748,0c-1.382,0 -2.499,1.085 -2.499,2.429c0,1.343 1.117,2.428 2.499,2.428c1.383,0 2.5,-1.085 2.5,-2.428c0,-1.344 -1.117,-2.429 -2.5,-2.429Zm-8.748,-13.357c-11.046,0 -19.998,7.066 -19.998,15.786c0,3.612 1.555,6.921 4.132,9.585c-1.163,2.99 -3.585,5.525 -3.624,5.555c-0.516,0.532 -0.656,1.306 -0.359,1.974c0.296,0.667 0.976,1.1 1.726,1.1c4.804,0 8.593,-1.95 10.866,-3.514c2.257,0.691 4.694,1.085 7.257,1.085c11.045,0 19.997,-7.065 19.997,-15.785c0,-8.72 -8.952,-15.786 -19.997,-15.786Zm0,27.929c-2.086,0 -4.148,-0.312 -6.125,-0.919l-1.773,-0.546l-1.523,1.047c-1.117,0.767 -2.648,1.624 -4.492,2.201c0.571,-0.918 1.125,-1.95 1.555,-3.051l0.828,-2.132l-1.609,-1.655c-1.414,-1.465 -3.109,-3.886 -3.109,-7.088c0,-6.694 7.288,-12.143 16.248,-12.143c8.959,0 16.247,5.449 16.247,12.143c0,6.693 -7.288,12.143 -16.247,12.143Z" style="fill:#b1c5dd;fill-rule:nonzero;"/></svg>