<?xml version="1.0" encoding="UTF-8" standalone="no"?><!DOCTYPE svg PUBLIC "-//W3C//DTD SVG 1.1//EN" "http://www.w3.org/Graphics/SVG/1.1/DTD/svg11.dtd"><svg width="100%" height="100%" viewBox="0 0 300 300" version="1.1" xmlns="http://www.w3.org/2000/svg" xmlns:xlink="http://www.w3.org/1999/xlink" xml:space="preserve" xmlns:serif="http://www.serif.com/" style="fill-rule:evenodd;clip-rule:evenodd;stroke-linejoin:round;stroke-miterlimit:1.41421;"><g><path d="M135.185,250.572l-41.185,-110.103l-46.406,124.062l-29.688,0l61.563,-162.812l-24.688,-66.25l29.688,0l65.646,175.616l41.354,-109.366l-24.688,-66.25l29.688,0l85.625,229.062l-29.688,0l-46.406,-124.062l-41.155,110.022l5.249,14.04l-40.188,0l5.279,-13.959Z" style="fill:none;stroke:#ff4500;stroke-width:3px;"/><path d="M135.185,250.572l-41.185,-110.103l-46.406,124.062l-29.688,0l61.563,-162.812l-24.688,-66.25l29.688,0l65.646,175.616l41.354,-109.366l-24.688,-66.25l29.688,0l85.625,229.062l-29.688,0l-46.406,-124.062l-41.155,110.022l5.249,14.04l-40.188,0l5.279,-13.959Z" style="fill:#ff4500;fill-rule:nonzero;"/></g></svg>