<?xml version="1.0" encoding="UTF-8" standalone="no"?><!DOCTYPE svg PUBLIC "-//W3C//DTD SVG 1.1//EN" "http://www.w3.org/Graphics/SVG/1.1/DTD/svg11.dtd"><svg width="100%" height="100%" viewBox="0 0 404 84" version="1.1" xmlns="http://www.w3.org/2000/svg" xmlns:xlink="http://www.w3.org/1999/xlink" xml:space="preserve" xmlns:serif="http://www.serif.com/" style="fill-rule:evenodd;clip-rule:evenodd;stroke-linejoin:round;stroke-miterlimit:1.41421;"><g><g><path d="M127.277,76.335c-2.43,2.071 -4.769,3.533 -7.017,4.386c-2.247,0.852 -4.659,1.279 -7.235,1.279c-4.252,0 -7.52,-1.042 -9.804,-3.125c-2.284,-2.084 -3.426,-4.745 -3.426,-7.986c0,-1.901 0.431,-3.637 1.294,-5.208c0.862,-1.572 1.992,-2.833 3.389,-3.783c1.397,-0.95 2.971,-1.669 4.72,-2.157c1.288,-0.341 3.232,-0.67 5.832,-0.986c5.297,-0.634 9.198,-1.389 11.7,-2.266c0.025,-0.902 0.037,-1.474 0.037,-1.718c0,-2.68 -0.62,-4.569 -1.859,-5.666c-1.677,-1.486 -4.168,-2.229 -7.472,-2.229c-3.086,0 -5.364,0.542 -6.835,1.626c-1.47,1.085 -2.557,3.004 -3.262,5.757l-6.415,-0.877c0.583,-2.754 1.543,-4.977 2.88,-6.67c1.336,-1.694 3.268,-2.998 5.795,-3.911c2.527,-0.914 5.455,-1.371 8.784,-1.371c3.305,0 5.99,0.39 8.056,1.17c2.065,0.78 3.584,1.76 4.556,2.942c0.972,1.182 1.652,2.674 2.041,4.477c0.219,1.121 0.328,3.143 0.328,6.067l0,8.772c0,6.116 0.14,9.984 0.419,11.604c0.279,1.621 0.833,3.174 1.658,4.661l-6.852,0c-0.68,-1.365 -1.118,-2.961 -1.312,-4.788Zm-0.547,-14.693c-2.381,0.975 -5.953,1.803 -10.716,2.485c-2.697,0.39 -4.604,0.829 -5.722,1.316c-1.118,0.488 -1.981,1.2 -2.588,2.138c-0.607,0.938 -0.911,1.98 -0.911,3.125c0,1.754 0.662,3.217 1.986,4.386c1.324,1.17 3.262,1.755 5.814,1.755c2.527,0 4.775,-0.555 6.743,-1.664c1.968,-1.108 3.414,-2.625 4.337,-4.55c0.705,-1.486 1.057,-3.679 1.057,-6.579l0,-2.412Z" style="fill:#ff4500;fill-rule:nonzero;stroke:#ff4500;stroke-width:2.08px;"/><path d="M143.979,81.123l0,-38.816l5.905,0l0,5.885c1.506,-2.753 2.897,-4.569 4.173,-5.446c1.275,-0.877 2.679,-1.316 4.21,-1.316c2.211,0 4.458,0.707 6.742,2.12l-2.259,6.104c-1.604,-0.951 -3.207,-1.426 -4.811,-1.426c-1.434,0 -2.722,0.433 -3.864,1.298c-1.142,0.865 -1.956,2.065 -2.442,3.6c-0.729,2.339 -1.094,4.898 -1.094,7.675l0,20.322l-6.56,0Z" style="fill:#ff4500;fill-rule:nonzero;stroke:#ff4500;stroke-width:2.08px;"/><path d="M171.02,81.123l0,-53.582l6.56,0l0,30.555l15.528,-15.789l8.492,0l-14.798,14.401l16.293,24.415l-8.092,0l-12.794,-19.847l-4.629,4.46l0,15.387l-6.56,0Z" style="fill:#ff4500;fill-rule:nonzero;stroke:#ff4500;stroke-width:2.08px;"/><path d="M234.805,68.623l6.78,0.84c-1.069,3.972 -3.05,7.055 -5.942,9.248c-2.891,2.192 -6.585,3.289 -11.08,3.289c-5.662,0 -10.151,-1.749 -13.468,-5.245c-3.317,-3.497 -4.975,-8.4 -4.975,-14.711c0,-6.53 1.677,-11.598 5.03,-15.205c3.353,-3.605 7.703,-5.409 13.048,-5.409c5.177,0 9.404,1.767 12.685,5.3c3.28,3.533 4.92,8.503 4.92,14.912c0,0.39 -0.012,0.975 -0.036,1.754l-28.868,0c0.243,4.264 1.446,7.529 3.609,9.795c2.162,2.267 4.86,3.399 8.092,3.399c2.405,0 4.458,-0.633 6.159,-1.9c1.701,-1.267 3.05,-3.289 4.046,-6.067Zm-21.541,-10.636l21.614,0c-0.292,-3.265 -1.118,-5.714 -2.479,-7.346c-2.089,-2.534 -4.798,-3.802 -8.127,-3.802c-3.014,0 -5.547,1.011 -7.6,3.034c-2.053,2.023 -3.19,4.727 -3.408,8.114Z" style="fill:#ff4500;fill-rule:nonzero;stroke:#ff4500;stroke-width:2.08px;"/><path d="M275.972,81.123l0,-4.898c-2.454,3.85 -6.062,5.775 -10.825,5.775c-3.086,0 -5.923,-0.853 -8.511,-2.559c-2.588,-1.705 -4.593,-4.087 -6.014,-7.145c-1.421,-3.058 -2.132,-6.573 -2.132,-10.544c0,-3.875 0.644,-7.389 1.931,-10.545c1.288,-3.155 3.22,-5.574 5.796,-7.255c2.576,-1.681 5.455,-2.522 8.638,-2.522c2.333,0 4.411,0.494 6.233,1.48c1.823,0.987 3.305,2.273 4.447,3.856l0,-19.225l6.524,0l0,53.582l-6.087,0Zm-20.739,-19.371c0,4.97 1.045,8.686 3.134,11.147c2.09,2.461 4.556,3.691 7.4,3.691c2.867,0 5.303,-1.175 7.307,-3.527c2.005,-2.351 3.007,-5.939 3.007,-10.763c0,-5.312 -1.02,-9.211 -3.061,-11.696c-2.042,-2.485 -4.556,-3.728 -7.545,-3.728c-2.916,0 -5.352,1.194 -7.308,3.582c-1.956,2.388 -2.934,6.152 -2.934,11.294Z" style="fill:#ff4500;fill-rule:nonzero;stroke:#ff4500;stroke-width:2.08px;"/><path d="M291.374,35.107l0,-7.566l6.56,0l0,7.566l-6.56,0Zm0,46.016l0,-38.816l6.56,0l0,38.816l-6.56,0Z" style="fill:#ff4500;fill-rule:nonzero;stroke:#ff4500;stroke-width:2.08px;"/><path d="M305.297,69.536l6.488,-1.023c0.365,2.607 1.379,4.606 3.044,5.994c1.664,1.389 3.991,2.083 6.98,2.083c3.013,0 5.248,-0.615 6.706,-1.845c1.458,-1.231 2.187,-2.674 2.187,-4.331c0,-1.487 -0.644,-2.656 -1.931,-3.509c-0.9,-0.585 -3.135,-1.328 -6.707,-2.229c-4.811,-1.219 -8.147,-2.273 -10.006,-3.162c-1.859,-0.889 -3.268,-2.12 -4.228,-3.691c-0.959,-1.572 -1.439,-3.308 -1.439,-5.209c0,-1.73 0.395,-3.332 1.184,-4.806c0.79,-1.474 1.865,-2.698 3.226,-3.673c1.02,-0.755 2.412,-1.395 4.173,-1.919c1.762,-0.524 3.651,-0.786 5.668,-0.786c3.037,0 5.705,0.439 8.001,1.316c2.296,0.877 3.991,2.065 5.084,3.564c1.094,1.498 1.847,3.502 2.26,6.012l-6.415,0.877c-0.291,-1.998 -1.136,-3.557 -2.533,-4.678c-1.397,-1.121 -3.371,-1.682 -5.923,-1.682c-3.013,0 -5.164,0.5 -6.451,1.499c-1.288,0.999 -1.932,2.169 -1.932,3.509c0,0.852 0.267,1.62 0.802,2.303c0.534,0.706 1.373,1.291 2.515,1.754c0.656,0.243 2.588,0.804 5.795,1.681c4.641,1.243 7.879,2.26 9.714,3.052c1.834,0.791 3.274,1.943 4.319,3.454c1.045,1.511 1.567,3.387 1.567,5.628c0,2.193 -0.637,4.258 -1.913,6.196c-1.276,1.936 -3.117,3.435 -5.523,4.495c-2.405,1.06 -5.126,1.59 -8.164,1.59c-5.03,0 -8.863,-1.048 -11.499,-3.143c-2.637,-2.096 -4.32,-5.203 -5.049,-9.321Z" style="fill:#ff4500;fill-rule:nonzero;stroke:#ff4500;stroke-width:2.08px;"/><path d="M360.088,75.238l0.948,5.812c-1.847,0.39 -3.499,0.585 -4.958,0.585c-2.38,0 -4.227,-0.378 -5.54,-1.134c-1.312,-0.755 -2.235,-1.748 -2.77,-2.979c-0.534,-1.23 -0.802,-3.819 -0.802,-7.766l0,-22.332l-4.811,0l0,-5.117l4.811,0l0,-9.612l6.525,-3.948l0,13.56l6.597,0l0,5.117l-6.597,0l0,22.697c0,1.876 0.115,3.083 0.346,3.619c0.231,0.536 0.608,0.962 1.13,1.279c0.523,0.316 1.27,0.475 2.242,0.475c0.728,0 1.688,-0.085 2.879,-0.256Z" style="fill:#ff4500;fill-rule:nonzero;stroke:#ff4500;stroke-width:2.08px;"/><path d="M393.835,76.335c-2.429,2.071 -4.768,3.533 -7.016,4.386c-2.248,0.852 -4.659,1.279 -7.235,1.279c-4.252,0 -7.521,-1.042 -9.805,-3.125c-2.284,-2.084 -3.426,-4.745 -3.426,-7.986c0,-1.901 0.432,-3.637 1.294,-5.208c0.863,-1.572 1.993,-2.833 3.39,-3.783c1.397,-0.95 2.97,-1.669 4.72,-2.157c1.288,-0.341 3.232,-0.67 5.832,-0.986c5.297,-0.634 9.197,-1.389 11.7,-2.266c0.024,-0.902 0.036,-1.474 0.036,-1.718c0,-2.68 -0.619,-4.569 -1.859,-5.666c-1.676,-1.486 -4.167,-2.229 -7.472,-2.229c-3.085,0 -5.364,0.542 -6.834,1.626c-1.47,1.085 -2.557,3.004 -3.262,5.757l-6.415,-0.877c0.583,-2.754 1.543,-4.977 2.88,-6.67c1.336,-1.694 3.268,-2.998 5.795,-3.911c2.527,-0.914 5.455,-1.371 8.784,-1.371c3.305,0 5.99,0.39 8.055,1.17c2.066,0.78 3.584,1.76 4.556,2.942c0.972,1.182 1.653,2.674 2.042,4.477c0.218,1.121 0.328,3.143 0.328,6.067l0,8.772c0,6.116 0.139,9.984 0.419,11.604c0.279,1.621 0.832,3.174 1.658,4.661l-6.852,0c-0.681,-1.365 -1.118,-2.961 -1.313,-4.788Zm-0.546,-14.693c-2.381,0.975 -5.954,1.803 -10.716,2.485c-2.697,0.39 -4.605,0.829 -5.722,1.316c-1.119,0.488 -1.981,1.2 -2.588,2.138c-0.608,0.938 -0.911,1.98 -0.911,3.125c0,1.754 0.661,3.217 1.986,4.386c1.324,1.17 3.262,1.755 5.814,1.755c2.527,0 4.774,-0.555 6.742,-1.664c1.969,-1.108 3.414,-2.625 4.338,-4.55c0.705,-1.486 1.057,-3.679 1.057,-6.579l0,-2.412Z" style="fill:#ff4500;fill-rule:nonzero;stroke:#ff4500;stroke-width:2.08px;"/><path d="M28.503,38.671l-16.163,43.329l-10.34,0l21.442,-56.862l-8.599,-23.138l10.34,0l29.822,80l-10.339,0l-16.163,-43.329Z" style="fill:#ff4500;fill-rule:nonzero;stroke:#ff4500;stroke-width:1.04px;"/><path d="M68.937,38.671l-16.163,43.329l-10.34,0l21.442,-56.862l-8.599,-23.138l10.34,0l29.822,80l-10.339,0l-16.163,-43.329Z" style="fill:#ff4500;fill-rule:nonzero;stroke:#ff4500;stroke-width:1.04px;"/></g></g></svg>