<?xml version="1.0" encoding="UTF-8" standalone="no"?><!DOCTYPE svg PUBLIC "-//W3C//DTD SVG 1.1//EN" "http://www.w3.org/Graphics/SVG/1.1/DTD/svg11.dtd"><svg width="100%" height="100%" viewBox="0 0 64 64" version="1.1" xmlns="http://www.w3.org/2000/svg" xmlns:xlink="http://www.w3.org/1999/xlink" xml:space="preserve" xmlns:serif="http://www.serif.com/" style="fill-rule:evenodd;clip-rule:evenodd;stroke-linejoin:round;stroke-miterlimit:1.41421;"><path id="path2993" d="M17.453,55.269c0,2.425 -0.849,4.485 -2.546,6.182c-1.696,1.697 -3.757,2.545 -6.181,2.545c-2.424,0 -4.484,-0.848 -6.181,-2.545c-1.697,-1.697 -2.545,-3.757 -2.545,-6.182c0,-2.423 0.848,-4.484 2.545,-6.18c1.697,-1.697 3.757,-2.545 6.181,-2.545c2.424,0 4.485,0.848 6.181,2.545c1.697,1.696 2.546,3.757 2.546,6.18Zm23.269,5.591c0.061,0.849 -0.197,1.575 -0.772,2.181c-0.546,0.637 -1.258,0.955 -2.137,0.955l-6.135,0c-0.757,0 -1.409,-0.25 -1.954,-0.75c-0.546,-0.5 -0.849,-1.129 -0.909,-1.886c-0.667,-6.939 -3.462,-12.869 -8.386,-17.793c-4.924,-4.924 -10.855,-7.72 -17.793,-8.385c-0.758,-0.061 -1.386,-0.364 -1.886,-0.91c-0.5,-0.545 -0.75,-1.197 -0.75,-1.954l0,-6.136c0,-0.879 0.318,-1.59 0.955,-2.135c0.515,-0.515 1.166,-0.773 1.954,-0.773l0.227,0c4.848,0.394 9.484,1.613 13.907,3.658c4.424,2.046 8.348,4.795 11.772,8.25c3.454,3.423 6.204,7.347 8.249,11.771c2.044,4.423 3.265,9.059 3.658,13.907Zm23.27,0.091c0.06,0.818 -0.213,1.53 -0.818,2.136c-0.546,0.606 -1.242,0.909 -2.091,0.909l-6.499,0c-0.788,0 -1.462,-0.265 -2.023,-0.796c-0.56,-0.53 -0.855,-1.173 -0.886,-1.931c-0.363,-6.515 -1.893,-12.703 -4.59,-18.566c-2.697,-5.862 -6.204,-10.953 -10.522,-15.27c-4.318,-4.318 -9.408,-7.826 -15.27,-10.522c-5.864,-2.697 -12.051,-4.242 -18.567,-4.636c-0.757,-0.03 -1.4,-0.325 -1.93,-0.886c-0.53,-0.56 -0.796,-1.219 -0.796,-1.977l0,-6.499c0,-0.849 0.303,-1.546 0.909,-2.091c0.545,-0.545 1.212,-0.818 2,-0.818l0.136,0c7.939,0.394 15.536,2.211 22.793,5.454c7.257,3.242 13.702,7.696 19.338,13.362c5.666,5.635 10.12,12.081 13.362,19.338c3.242,7.258 5.06,14.854 5.454,22.793Z" style="fill:#ff4500;fill-rule:nonzero;"/></svg>