<?xml version="1.0" encoding="UTF-8" standalone="no"?><!DOCTYPE svg PUBLIC "-//W3C//DTD SVG 1.1//EN" "http://www.w3.org/Graphics/SVG/1.1/DTD/svg11.dtd"><svg width="100%" height="100%" viewBox="0 0 448 512" version="1.1" xmlns="http://www.w3.org/2000/svg" xmlns:xlink="http://www.w3.org/1999/xlink" xml:space="preserve" xmlns:serif="http://www.serif.com/" style="fill-rule:evenodd;clip-rule:evenodd;stroke-linejoin:round;stroke-miterlimit:1.41421;"><path d="M100.3,480l-92.9,0l0,-299.1l92.9,0l0,299.1Zm-46.5,-339.9c-29.7,0 -53.8,-24.6 -53.8,-54.3c0,-29.7 24.1,-53.8 53.8,-53.8c29.7,0 53.8,24.1 53.8,53.8c0,29.7 -24.1,54.3 -53.8,54.3Zm394.2,339.9l-92.7,0l0,-145.6c0,-34.7 -0.7,-79.2 -48.3,-79.2c-48.3,0 -55.7,37.7 -55.7,76.7l0,148.1l-92.8,0l0,-299.1l89.1,0l0,40.8l1.3,0c12.4,-23.5 42.7,-48.3 87.9,-48.3c94,0 111.3,61.9 111.3,142.3l0,164.3l-0.1,0Z" style="fill:#ff4500;fill-rule:nonzero;"/></svg>