<?xml version="1.0" encoding="UTF-8" standalone="no"?><!DOCTYPE svg PUBLIC "-//W3C//DTD SVG 1.1//EN" "http://www.w3.org/Graphics/SVG/1.1/DTD/svg11.dtd"><svg width="100%" height="100%" viewBox="0 0 448 512" version="1.1" xmlns="http://www.w3.org/2000/svg" xmlns:xlink="http://www.w3.org/1999/xlink" xml:space="preserve" xmlns:serif="http://www.serif.com/" style="fill-rule:evenodd;clip-rule:evenodd;stroke-linejoin:round;stroke-miterlimit:1.41421;"><path d="M400,32l-352,0c-26.5,0 -48,21.5 -48,48l0,352c0,26.5 21.5,48 48,48l352,0c26.5,0 48,-21.5 48,-48l0,-352c0,-26.5 -21.5,-48 -48,-48Zm-48.9,158.8c0.2,2.8 0.2,5.7 0.2,8.5c0,86.7 -66,186.6 -186.6,186.6c-37.2,0 -71.7,-10.8 -100.7,-29.4c5.3,0.6 10.4,0.8 15.8,0.8c30.7,0 58.9,-10.4 81.4,-28c-28.8,-0.6 -53,-19.5 -61.3,-45.5c10.1,1.5 19.2,1.5 29.6,-1.2c-30,-6.1 -52.5,-32.5 -52.5,-64.4l0,-0.8c8.7,4.9 18.9,7.9 29.6,8.3c-18.254,-12.142 -29.236,-32.677 -29.2,-54.6c0,-12.2 3.2,-23.4 8.9,-33.1c32.3,39.8 80.8,65.8 135.2,68.6c-9.3,-44.5 24,-80.6 64,-80.6c18.9,0 35.9,7.9 47.9,20.7c14.8,-2.8 29,-8.3 41.6,-15.8c-4.9,15.2 -15.2,28 -28.8,36.1c13.2,-1.4 26,-5.1 37.8,-10.2c-8.9,13.1 -20.1,24.7 -32.9,34Z" style="fill:#fff;fill-rule:nonzero;"/></svg>